# xmcd
#
# Track frame offsets: 
#        150
#        46857
#        89269
#        101110
#        114733
#        143919
#        188206
#        209988
#        234000
#        253866
#        281870
#        294896
#
# Disc length: 4184 seconds
#
# Revision: 0
# Processed by: cddbd v1.5.2PL0 Copyright (c) Steve Scherf et al.
# Submitted via: ExactAudioCopyFreeDBPlugin 1.0
#
DISCID=b710560c
DTITLE=Mojo Blues Band - Super Blues News
DYEAR=1992
DGENRE=Blues
TTITLE0=Big City
TTITLE1=Sound Of The Blues
TTITLE2=Harp Enough
TTITLE3=Louisiana Stomp
TTITLE4=Midnight At Jazzland
TTITLE5=People's Problems
TTITLE6=Double Dynamite
TTITLE7=Just A Closer Walk With Thee
TTITLE8=Ain't Doin' Too Bad
TTITLE9=I Got My Brand On You
TTITLE10=Guitar Shuffle
TTITLE11=Reconsider Baby
EXTD=
EXTT0=
EXTT1=
EXTT2=
EXTT3=
EXTT4=
EXTT5=
EXTT6=
EXTT7=
EXTT8=
EXTT9=
EXTT10=
EXTT11=
PLAYORDER=
